<?xml version="1.0" encoding="UTF-8"?>
<svg width="72px" height="46px" viewBox="0 0 72 46" version="1.1" xmlns="http://www.w3.org/2000/svg" xmlns:xlink="http://www.w3.org/1999/xlink">
    <!-- Generator: Sketch 54.1 (76490) - https://sketchapp.com -->
    <title>Whistle It final logo 2</title>
    <desc>Created with Sketch.</desc>
    <g id="Page-1" stroke="none" stroke-width="1" fill="none" fill-rule="evenodd">
        <g id="Whistle-It-login--wrong-confirm-password" transform="translate(-60.000000, -31.000000)" fill-rule="nonzero">
            <g id="whistle-chat-final-logo-2" transform="translate(60.000000, 31.000000)">
                <path d="M35.6128146,17.906087 C35.2164568,18.2843074 34.9043111,18.7418591 34.6967506,19.2488787 C34.2024714,20.4302059 33.7806865,21.6626087 32.9733638,22.667643 C31.7426087,24.2015561 29.5331808,24.0252632 28.4737757,22.3529519 C27.7521281,21.2128146 23.1536842,13.1610069 22.9263158,12.7672311 C21.4775286,10.2716705 20.0342334,7.77281465 18.5964302,5.27066362 C18.4053089,4.94114416 18.21254,4.61162471 18.0395423,4.26562929 C17.3178947,2.83386728 17.7561556,1.29995423 19.1071854,0.523935927 C20.3758352,-0.209244851 21.9624714,0.194416476 22.794508,1.54050343 C23.5688787,2.79102975 24.2773455,4.08604119 25.0105263,5.36128146 C26.7328146,8.34562929 28.4562014,11.3283295 30.1806865,14.3093822 C30.2515332,14.4296568 30.3454462,14.5334554 30.5217391,14.7608238 C31.0341419,13.5926773 31.5102975,12.5316247 31.9683295,11.4656293 C32.7229291,9.70764302 33.467643,7.94471396 34.2172998,6.18343249 C34.7313501,4.97574371 35.5353776,4.17501144 36.9473684,4.19313501 C38.3593593,4.21125858 39.1353776,5.02681922 39.6494279,6.23286041 C40.6215103,8.50654462 41.6117162,10.7736384 42.6002746,13.0407323 C42.700778,13.2697483 42.7353776,13.6124485 43.0747826,13.5992677 C43.3400458,13.5877346 43.4043021,13.2878719 43.5196339,13.0934554 C44.2495195,11.8478719 44.9398627,10.579222 45.6977574,9.35340961 C46.3567963,8.28411899 47.384897,7.92988558 48.5991762,8.12594966 C49.6289245,8.29070938 50.4856751,9.16887872 50.7245767,10.2480549 C50.8893364,10.9795881 50.7097483,11.6501602 50.3555149,12.2861327 C50.0869565,12.7705263 47.5545995,17.144897 47.1212815,17.8879634 C46.8609611,18.3443478 45.8130892,20.0298398 45.4489703,20.7580778 C44.9546911,21.7466362 44.2808238,22.540778 43.089611,22.6643478 C41.6281922,22.8142792 40.5210069,22.1222883 39.8932723,20.6872311 C39.2342334,19.1681465 37.7892906,15.8729519 35.6095195,17.9077346" id="Path" fill="#4909D3"></path>
                <path d="M49.2433867,5.10919908 C49.1833797,4.13066763 49.6713499,3.19966422 50.5101913,2.69224939 C51.3490326,2.18483456 52.4001664,2.18483456 53.2390078,2.69224939 C54.0778492,3.19966422 54.5658193,4.13066763 54.5058124,5.10919908 C54.4959268,6.55249428 53.2783524,7.78324943 51.8696568,7.77171625 C50.414828,7.74306781 49.2492295,6.55771343 49.2450343,5.1026087" id="Path" fill="#4909D3"></path>
                <path d="M13.5679634,34.416659 C14.2270023,34.653913 14.5565217,34.9718993 14.5565217,35.3673227 C14.5293581,35.6168141 14.4695326,35.8616553 14.3785812,36.0955606 L11.5249428,44.3417849 C11.4979599,44.4287504 11.4632208,44.5131168 11.4211442,44.5938673 C11.3175345,44.7501342 11.1836353,44.8840333 11.0273684,44.987643 C10.5750452,45.3147429 9.9639022,45.3147429 9.51157895,44.987643 C9.33242713,44.8645102 9.1868761,44.6985707 9.08814645,44.504897 L7.35652174,39.379222 L5.67762014,44.3417849 C5.64265143,44.4305155 5.59788926,44.5150662 5.54416476,44.5938673 C5.47660796,44.7019217 5.3970147,44.801966 5.30691076,44.8920824 C5.09143473,45.115009 4.79310766,45.2385164 4.48311213,45.233135 C4.20563613,45.2449896 3.9317427,45.166982 3.70215103,45.0107094 C3.53090703,44.8982083 3.39045904,44.7447349 3.29354691,44.5642105 L3.18974828,44.3417849 L0.327871854,36.0955606 C0.238134134,35.8620261 0.182639934,35.6167418 0.163112128,35.3673227 C0.163112128,34.9718993 0.492631579,34.6599542 1.15167048,34.4314874 C1.40151006,34.3395051 1.66482215,34.2894035 1.93098398,34.2832037 C2.1372339,34.2716177 2.33647705,34.3598977 2.46645309,34.5204577 C2.61783591,34.7421775 2.7293497,34.9886229 2.79597254,35.2486957 L4.43038902,40.2112586 L6.06315789,35.3244851 C6.17580473,34.9392396 6.45333882,34.6236954 6.82105263,34.4627918 C7.01784176,34.3866859 7.22804627,34.3513716 7.4389016,34.3589931 C7.91596178,34.383159 8.34350825,34.6610642 8.55926773,35.0872311 L10.2694737,40.2425629 L11.9038902,35.2503432 C11.9829748,35.0229748 12.0472311,34.8549199 12.096659,34.7445309 C12.1610482,34.6176677 12.2555136,34.5084951 12.3718078,34.4265446 C12.5125915,34.3161823 12.6872426,34.2579652 12.866087,34.2617849 C13.105777,34.2703888 13.3421508,34.3205625 13.5646682,34.4100686" id="Path" fill="#020202"></path>
                <path d="M19.7184439,37.448238 C20.6705719,37.4311289 21.5792369,37.8460859 22.1898398,38.5768421 C22.8533342,39.3417936 23.2060492,40.327632 23.1783982,41.3398627 L23.1783982,43.9562471 C23.1813122,44.1273203 23.1741603,44.2984167 23.1569794,44.4686499 C23.133255,44.6072151 23.08529,44.7405133 23.015286,44.8624256 C22.8867735,45.1194508 22.5045309,45.2479634 21.8718535,45.2479634 C21.2666362,45.2479634 20.8898856,45.1194508 20.7416018,44.8624256 C20.6710605,44.7379621 20.6236147,44.6017649 20.6015561,44.4604119 C20.5827921,44.2831228 20.5750884,44.1048372 20.5784897,43.9265904 L20.5784897,41.3250343 C20.5987301,40.9749649 20.4755969,40.6317385 20.2374371,40.3743707 C20.0065457,40.1461288 19.6919973,40.0228116 19.3675057,40.0333181 C19.0300823,40.0289972 18.7016283,40.141976 18.4382609,40.3529519 C18.1973914,40.5241919 18.0325491,40.7823858 17.9785812,41.0729519 L17.9785812,43.9562471 C17.9811341,44.1273555 17.9734315,44.298463 17.9555149,44.4686499 C17.9324712,44.6071534 17.8850556,44.740475 17.8154691,44.8624256 C17.6853089,45.1194508 17.304714,45.2479634 16.662151,45.2479634 C16.0195881,45.2479634 15.6571167,45.114508 15.5187185,44.8475973 C15.4575376,44.7255104 15.414785,44.5950316 15.3918535,44.4604119 C15.3743184,44.2879998 15.3671659,44.1146894 15.3704348,43.9414188 L15.3704348,35.0559268 C15.3675207,34.8848536 15.3746727,34.7137572 15.3918535,34.543524 C15.4130121,34.4110904 15.4558761,34.2830552 15.5187185,34.1645767 C15.6571167,33.8965675 16.0415561,33.7625629 16.6720366,33.7625629 C17.296476,33.7625629 17.6721281,33.8960183 17.8022883,34.1645767 C17.8718748,34.2865273 17.9192904,34.4198489 17.9423341,34.5583524 C17.9602507,34.7285393 17.9679533,34.8996468 17.9654005,35.0707551 L17.9654005,38.3544165 C18.4596796,37.7502975 19.0390847,37.448238 19.7036156,37.448238" id="Path" fill="#020202"></path>
                <path d="M26.8129977,35.9686957 C26.7295273,36.1203712 26.5869776,36.230713 26.419222,36.2735011 C25.9259341,36.3921353 25.4115487,36.3921353 24.9182609,36.2735011 C24.7492199,36.2293595 24.606402,36.1164198 24.5244851,35.9621053 C24.4587579,35.8390313 24.4136736,35.706005 24.3910297,35.5683295 C24.3624749,35.2273244 24.3624749,34.8845291 24.3910297,34.543524 C24.4121883,34.4110904 24.4550523,34.2830552 24.5178947,34.1645767 C24.6562929,33.8965675 25.0407323,33.7625629 25.6712128,33.7625629 C26.2956522,33.7625629 26.6713043,33.8960183 26.8014645,34.1645767 C26.871051,34.2865273 26.9184666,34.4198489 26.9415103,34.5583524 C26.9722683,34.8992619 26.9722683,35.2422484 26.9415103,35.5831579 C26.9194315,35.7183647 26.8742899,35.8487737 26.8080549,35.9686957 L26.8129977,35.9686957 Z M24.3646682,38.7251259 C24.3617541,38.5540527 24.3689061,38.3829563 24.386087,38.2127231 C24.4084074,38.0758497 24.4511734,37.9431084 24.5129519,37.8189474 C24.6513501,37.5619222 25.0357895,37.4334096 25.66627,37.4334096 C26.1429748,37.4334096 26.4796339,37.5174371 26.6762471,37.685492 C26.8554525,37.8486961 26.9536903,38.0825383 26.9448055,38.3247597 C26.9546911,38.4236156 26.9596339,38.5669565 26.9596339,38.7547826 L26.9596339,43.9562471 C26.9621867,44.1273555 26.9544841,44.298463 26.9365675,44.4686499 C26.9135238,44.6071534 26.8661082,44.740475 26.7965217,44.8624256 C26.6663616,45.1194508 26.2857666,45.2479634 25.6432037,45.2479634 C25.0006407,45.2479634 24.6381693,45.114508 24.4997712,44.8475973 C24.4385902,44.7255104 24.3958376,44.5950316 24.3729062,44.4604119 C24.355371,44.2879998 24.3482185,44.1146894 24.3514874,43.9414188 L24.3646682,38.7251259 Z" id="Shape" fill="#020202"></path>
                <path d="M28.2167506,44.5510297 C28.0269408,44.428786 27.9189206,44.2127456 27.9350114,43.9875515 C27.9350114,43.7305263 28.1228375,43.3389474 28.4984897,42.8128146 C28.6169582,42.6401846 28.8186643,42.5440444 29.0273684,42.5607323 C29.2701144,42.5607323 29.5996339,42.6821053 30.0159268,42.9248513 C30.3544445,43.1427817 30.7441072,43.2683145 31.1461785,43.2889703 C31.7491991,43.2889703 32.052357,43.1703432 32.052357,42.9314416 C32.052357,42.7436156 31.7228375,42.6019222 31.0637986,42.5162471 C30.4027732,42.4139758 29.7700323,42.176137 29.2053089,41.8176659 C28.8936756,41.6104342 28.6464911,41.319864 28.4918993,40.9790389 C28.294667,40.5530739 28.198259,40.0873838 28.2101602,39.6181236 C28.2101602,38.0540046 29.2849428,37.2719451 31.434508,37.2719451 C32.1855497,37.282769 32.925516,37.4546974 33.6043936,37.7761098 C33.950389,37.9408696 34.1233867,38.1336384 34.1233867,38.3708924 C34.0949756,38.6875218 33.9810798,38.9904846 33.7938673,39.2474142 C33.5763844,39.5934096 33.3523112,39.7680549 33.1249428,39.7680549 C32.8937814,39.7327584 32.6706733,39.6569016 32.4659039,39.5439817 C32.1369749,39.394427 31.7793513,39.3185163 31.418032,39.3215561 C30.8325858,39.3215561 30.5404119,39.4313959 30.5415103,39.6510755 C30.5415103,39.9498398 30.8781693,40.1431579 31.5514874,40.2310297 C32.2141533,40.3032231 32.8582975,40.4946802 33.4528146,40.7961556 C33.7622378,40.9554723 34.0144387,41.2070974 34.1744622,41.5161556 C34.3801336,41.9124277 34.4800157,42.3550868 34.4644394,42.8012815 C34.4784254,43.257875 34.3787834,43.7107933 34.1744622,44.1193593 C33.9957849,44.4677668 33.712252,44.7512998 33.3638444,44.9299771 C32.7256751,45.2265446 31.9287872,45.3748284 30.9731808,45.3748284 C29.9943341,45.3705696 29.0374111,45.0845794 28.2167506,44.5510297" id="Path" fill="#020202"></path>
                <path d="M39.7318078,40.0481465 L38.7663158,39.988833 L38.7663158,42.0384439 C38.749652,42.2400992 38.7938436,42.4421181 38.8931808,42.6183982 C39.0125133,42.7520625 39.1898918,42.8185795 39.3676888,42.7963387 C39.5464687,42.7940544 39.7252367,42.8017551 39.9031579,42.819405 C40.0424457,42.8393466 40.1763336,42.8869636 40.2969336,42.9594508 C40.5243021,43.089611 40.6379863,43.420778 40.6379863,43.9562471 C40.6379863,44.5790389 40.4995881,44.9612815 40.2227918,45.0996796 C40.0986308,45.1614582 39.9658895,45.2042242 39.829016,45.2265446 C39.664822,45.243414 39.4997746,45.2505661 39.3347368,45.2479634 C38.303341,45.2479634 37.5207323,45.015103 36.9869108,44.5493822 C36.4530892,44.0836613 36.1856293,43.2961098 36.1845309,42.1867277 L36.1845309,39.988833 C35.982792,40.0194801 35.7789708,40.0343536 35.5749199,40.0333181 C35.365126,40.0369131 35.1652973,39.9439836 35.0328604,39.7812357 C34.8895195,39.616476 34.8170252,39.3248513 34.8170252,38.9178947 C34.8066524,38.621626 34.831541,38.3251746 34.891167,38.0347826 C34.9214981,37.8864483 34.9935151,37.7498446 35.0987643,37.6410069 C35.2683495,37.5091114 35.478834,37.4408934 35.6935469,37.448238 L36.1878261,37.5075515 L36.1878261,35.983524 C36.1847835,35.8146425 36.1919361,35.6457314 36.2092449,35.4777117 C36.2314791,35.3505969 36.279717,35.2294413 36.3509382,35.1218307 C36.4794508,34.8746911 36.8616934,34.7494737 37.4960183,34.7494737 C38.168238,34.7494737 38.5702517,34.9340046 38.6987643,35.2997712 C38.75805,35.5478186 38.7829969,35.8028317 38.7729062,36.0576659 L38.7729062,37.5141419 C39.2122654,37.4745995 39.5417849,37.4548284 39.7614645,37.4548284 C39.9297951,37.4519972 40.0981454,37.4591493 40.2656293,37.4762471 C40.4041945,37.4999715 40.5374927,37.5479366 40.659405,37.6179405 C40.9180778,37.7464531 41.0465904,38.1286957 41.0465904,38.761373 C41.0465904,39.3940503 40.9114874,39.7680549 40.6445767,39.9064531 C40.52038,39.9678019 40.3876207,40.0100182 40.2508009,40.0316705 C40.0806173,40.0496306 39.9095071,40.0573333 39.7383982,40.0547368" id="Path" fill="#020202"></path>
                <path d="M41.8572082,35.0410984 C41.8542942,34.8700253 41.8614461,34.6989288 41.878627,34.5286957 C41.9009474,34.3918222 41.9437134,34.2590809 42.005492,34.1349199 C42.1438902,33.8669108 42.5283295,33.7329062 43.1588101,33.7329062 C43.7634783,33.7329062 44.1391304,33.8663616 44.2890618,34.1349199 C44.3595493,34.2588181 44.406998,34.3944656 44.4291076,34.535286 C44.4468376,34.7082424 44.4545392,34.8820801 44.4521739,35.0559268 L44.4521739,41.9346453 C44.4521739,42.2921739 44.4818307,42.5162471 44.5411442,42.6118078 C44.6004577,42.7073684 44.7322654,42.7518535 44.9349199,42.7518535 C45.0715324,42.7476844 45.2082487,42.7554023 45.343524,42.7749199 C45.4348202,42.8000646 45.5204106,42.84258 45.5956064,42.9001373 C45.7933181,43.0302975 45.8938215,43.3812357 45.8938215,43.9562471 C45.8938215,44.5790389 45.7933181,44.9612815 45.5956064,45.0996796 C45.3385812,45.2776201 44.7245767,45.3072769 43.7535927,45.1886499 C42.9913043,45.0897941 42.4970252,44.8371625 42.2707551,44.4307551 C41.9939588,43.9463616 41.8555606,43.1736384 41.8555606,42.1125858 L41.8572082,35.0410984 Z" id="Path" fill="#020202"></path>
                <path d="M54.1136842,40.3974371 C54.1136842,41.0070481 53.9637529,41.4568421 53.660595,41.7501144 C53.398983,42.0246519 53.0380364,42.182566 52.6588558,42.1883753 L49.1362929,42.1883753 C49.1362929,42.4651716 49.3010526,42.6974828 49.6305721,42.8853089 C49.9261532,43.0656706 50.2646674,43.1635269 50.6108924,43.1686957 C51.0685547,43.1852666 51.525763,43.1251223 51.9635698,42.9907551 L52.1283295,42.9297941 C52.3130542,42.8343104 52.5155866,42.7782072 52.7231121,42.7650343 C53.0394508,42.7650343 53.3113043,42.9891076 53.5469108,43.4339588 C53.6601236,43.645147 53.7259089,43.878488 53.7396796,44.1177117 C53.7396796,44.9964302 52.6846682,45.4357895 50.5746453,45.4357895 C49.9040328,45.4485706 49.2382426,45.3200158 48.620595,45.0584897 C48.0997568,44.8416982 47.6423251,44.4964989 47.290984,44.055103 C46.6805409,43.2923043 46.3502148,42.3431982 46.3551487,41.3662243 C46.3551487,40.1173455 46.7588101,39.1189016 47.5661327,38.3708924 C48.3734554,37.6228833 49.3812357,37.2494279 50.5894737,37.2505263 C51.966865,37.2505263 52.9773913,37.7354691 53.6210526,38.7053547 C53.9526017,39.2053394 54.1280847,39.7925766 54.1252174,40.3924943 L54.1136842,40.3974371 Z M50.9947826,40.8307551 C51.3704348,40.8307551 51.5582609,40.6720366 51.5582609,40.3545995 C51.5663233,40.1405461 51.4698515,39.9359276 51.2995881,39.8059497 C51.082712,39.6541294 50.8207519,39.5803624 50.5565217,39.5967048 C50.2002978,39.6100645 49.8604259,39.7496339 49.5976201,39.9904805 C49.2812815,40.2540961 49.1214645,40.5341876 49.1214645,40.8307551 L50.9947826,40.8307551 Z" id="Shape" fill="#020202"></path>
                <path d="M58.8439359,35.6655378 C58.8413395,35.4944288 58.8490422,35.3233186 58.8670023,35.153135 C58.8897722,35.0145608 58.9372047,34.8811919 59.0070481,34.7593593 C59.1454462,34.4913501 59.5298856,34.3573455 60.1603661,34.3573455 C60.852357,34.3573455 61.2642563,34.5402288 61.3927689,34.907643 C61.4513645,35.1608349 61.4762936,35.4206518 61.4669108,35.6803661 L61.4669108,43.9414188 C61.4701797,44.1146894 61.4630272,44.2879998 61.445492,44.4604119 C61.4210923,44.5967197 61.3731451,44.7277381 61.3037986,44.8475973 C61.1654005,45.114508 60.7782151,45.2479634 60.1504805,45.2479634 C59.4562929,45.2479634 59.0498856,45.0601373 58.9312586,44.6844851 C58.860499,44.4383899 58.830446,44.1823823 58.8422883,43.9265904 L58.8439359,35.6655378 Z" id="Path" fill="#020202"></path>
                <path d="M67.2038444,40.0481465 L66.2383524,39.988833 L66.2383524,42.0384439 C66.2224936,42.2400448 66.2666345,42.4418314 66.3652174,42.6183982 C66.4845499,42.7520625 66.6619284,42.8185795 66.8397254,42.7963387 C67.0185053,42.7940544 67.1972733,42.8017551 67.3751945,42.819405 C67.5144823,42.8393466 67.6483703,42.8869636 67.7689703,42.9594508 C67.9963387,43.089611 68.1100229,43.420778 68.1100229,43.9562471 C68.1100229,44.5790389 67.9716247,44.9612815 67.6948284,45.0996796 C67.5706674,45.1614582 67.4379261,45.2042242 67.3010526,45.2265446 C67.1368586,45.243414 66.9718112,45.2505661 66.8067735,45.2479634 C65.7753776,45.2479634 64.9927689,45.015103 64.4589474,44.5493822 C63.9251259,44.0836613 63.6576659,43.2961098 63.6565675,42.1867277 L63.6565675,39.988833 C63.4548286,40.0194801 63.2510074,40.0343536 63.0469565,40.0333181 C62.8371626,40.0369131 62.6373339,39.9439836 62.504897,39.7812357 C62.3615561,39.616476 62.2890618,39.3248513 62.2890618,38.9178947 C62.278689,38.621626 62.3035776,38.3251746 62.3632037,38.0347826 C62.3933806,37.8860424 62.4660675,37.7492537 62.5724485,37.6410069 C62.7412597,37.5088495 62.9513311,37.4405762 63.1655835,37.448238 L63.6598627,37.5075515 L63.6598627,35.983524 C63.6568202,35.8146425 63.6639727,35.6457314 63.6812815,35.4777117 C63.7035157,35.3505969 63.7517536,35.2294413 63.8229748,35.1218307 C63.9514874,34.8746911 64.33373,34.7494737 64.9664073,34.7494737 C65.6402746,34.7494737 66.0422883,34.9340046 66.1708009,35.2997712 C66.2300866,35.5478186 66.2550336,35.8028317 66.2449428,36.0576659 L66.2449428,37.5141419 C66.6843021,37.4745995 67.0138215,37.4548284 67.2335011,37.4548284 C67.4018317,37.4519972 67.570182,37.4591493 67.7376659,37.4762471 C67.8762311,37.4999715 68.0095294,37.5479366 68.1314416,37.6179405 C68.3901144,37.7464531 68.518627,38.1286957 68.518627,38.761373 C68.518627,39.3940503 68.3851716,39.7680549 68.1166133,39.9064531 C67.9924166,39.9678019 67.8596573,40.0100182 67.7228375,40.0316705 C67.5526507,40.0495871 67.3815431,40.0572897 67.2104348,40.0547368" id="Path" fill="#020202"></path>
                <path d="M71.6309382,42.7963387 C71.8000915,42.965492 71.8846682,43.3120366 71.8846682,43.8359725 L71.8846682,43.8919908 C71.8874198,44.0680362 71.8797174,44.2440896 71.8616018,44.419222 C71.8357985,44.563859 71.783278,44.7024238 71.7067277,44.8278261 C71.5573455,45.114508 71.183341,45.257849 70.584714,45.257849 C69.9849886,45.257849 69.5961556,45.1639359 69.3951487,44.9761098 C69.1941419,44.7882838 69.1051716,44.4307551 69.1051716,43.9068192 L69.1051716,43.8475057 C69.1027619,43.6736584 69.1104637,43.4998181 69.128238,43.326865 C69.15045,43.1853136 69.1984783,43.0490472 69.2699314,42.9248513 C69.4182151,42.6282838 69.7916705,42.48 70.3902975,42.48 C70.9889245,42.48 71.4024714,42.5837986 71.6309382,42.7913959" id="Path" fill="#020202"></path>
            </g>
        </g>
    </g>
</svg>